<?xml version="1.0" encoding="UTF-8" standalone="no"?>
<svg
   xmlns:dc="http://purl.org/dc/elements/1.1/"
   xmlns:cc="http://creativecommons.org/ns#"
   xmlns:rdf="http://www.w3.org/1999/02/22-rdf-syntax-ns#"
   xmlns:svg="http://www.w3.org/2000/svg"
   xmlns="http://www.w3.org/2000/svg"
   xmlns:sodipodi="http://sodipodi.sourceforge.net/DTD/sodipodi-0.dtd"
   xmlns:inkscape="http://www.inkscape.org/namespaces/inkscape"
   sodipodi:docname="KPLogo_BLACK.svg"
   inkscape:version="1.0 (4035a4fb49, 2020-05-01)"
   id="svg47"
   version="1.1"
   viewBox="0 0 78.316727 41.075348"
   height="41.075348mm"
   width="78.316727mm">
  <defs
     id="defs41" />
  <sodipodi:namedview
     inkscape:window-maximized="0"
     inkscape:window-y="0"
     inkscape:window-x="130"
     inkscape:window-height="1040"
     inkscape:window-width="1452"
     fit-margin-bottom="0"
     fit-margin-right="0"
     fit-margin-left="0"
     fit-margin-top="0"
     showgrid="false"
     inkscape:document-rotation="0"
     inkscape:current-layer="layer1"
     inkscape:document-units="mm"
     inkscape:cy="184.41836"
     inkscape:cx="266.45459"
     inkscape:zoom="2.1836328"
     inkscape:pageshadow="2"
     inkscape:pageopacity="0.0"
     borderopacity="1.0"
     bordercolor="#666666"
     pagecolor="#ffffff"
     id="base" />
  <metadata
     id="metadata44">
    <rdf:RDF>
      <cc:Work
         rdf:about="">
        <dc:format>image/svg+xml</dc:format>
        <dc:type
           rdf:resource="http://purl.org/dc/dcmitype/StillImage" />
        <dc:title></dc:title>
      </cc:Work>
    </rdf:RDF>
  </metadata>
  <g
     id="layer1"
     inkscape:groupmode="layer"
     inkscape:label="Calque 1">
    <path
       style="fill:#333333;fill-opacity:1;stroke-width:0.264583"
       d="m 29.679049,37.447234 c 0.10347,-4.255124 0.193,-4.413551 2.59217,-4.587092 l 1.59551,-0.115408 v 2.757008 c 0,3.060399 -0.14743,3.392009 -1.50812,3.392009 -0.84226,0 -0.87313,0.03741 -0.87313,1.058333 0,1.0375 -0.0186,1.058334 -0.94654,1.058334 h -0.94654 z m 2.60018,-1.4639 c 0,-0.764352 -0.11024,-1.058333 -0.39687,-1.058333 -0.28663,0 -0.39688,0.293981 -0.39688,1.058333 0,0.764352 0.11025,1.058334 0.39688,1.058334 0.28663,0 0.39687,-0.293982 0.39687,-1.058334 z m 2.4269,1.4639 c 0.10347,-4.255124 0.193,-4.413551 2.59217,-4.587092 l 1.59552,-0.115408 v 1.883883 1.883884 h -0.79375 c -0.73075,0 -0.79375,-0.0735 -0.79375,-0.926042 0,-0.646758 -0.1197,-0.926041 -0.39688,-0.926041 -0.33073,0 -0.39687,0.529166 -0.39687,3.175 v 3.175 h -0.94654 -0.94655 z m 6.10207,3.301251 c -0.90222,-0.38101 -1.17127,-1.455263 -1.07529,-4.293213 0.10327,-3.0533 0.38843,-3.514646 2.1724,-3.514646 1.88848,0 2.01559,0.25028 2.01559,3.96875 0,2.468293 -0.0891,3.316465 -0.37327,3.552283 -0.52066,0.432112 -2.02294,0.589407 -2.73943,0.286826 z m 1.5252,-3.839109 c 0,-1.5875 -0.0794,-1.984375 -0.39687,-1.984375 -0.3175,0 -0.39688,0.396875 -0.39688,1.984375 0,1.5875 0.0794,1.984375 0.39688,1.984375 0.3175,0 0.39687,-0.396875 0.39687,-1.984375 z m 2.42159,1.463908 c 0.0838,-2.463258 0.14716,-2.746732 0.71657,-3.207467 0.34355,-0.277969 0.9091,-0.505399 1.25677,-0.505399 0.54607,0 0.63215,-0.126103 0.63215,-0.926042 0,-0.852546 0.063,-0.926042 0.79375,-0.926042 h 0.79375 v 3.671771 c 0,4.314571 -0.005,4.322697 -2.56703,4.485855 l -1.71791,0.109389 z m 2.60549,-0.670158 c 0,-0.881944 -0.10289,-1.190625 -0.39687,-1.190625 -0.29398,0 -0.39688,0.308681 -0.39688,1.190625 0,0.881944 0.1029,1.190625 0.39688,1.190625 0.29398,0 0.39687,-0.308681 0.39687,-1.190625 z m 3.50188,3.045359 c -0.90189,-0.380875 -1.12063,-1.314349 -1.12063,-4.782375 v -3.157776 h 0.91765 0.91764 l 0.0745,3.108854 c 0.0974,4.062794 0.57829,4.016598 0.67826,-0.06516 l 0.0745,-3.043701 h 0.78535 0.78535 v 3.671771 c 0,2.837799 -0.0848,3.742129 -0.37326,3.981553 -0.52067,0.432113 -2.02295,0.589407 -2.73944,0.286827 z m 5.02709,0 c -0.32954,-0.139165 -0.71649,-0.561633 -0.8599,-0.938815 -0.3743,-0.984473 -0.31786,-5.152732 0.0805,-5.943002 0.44755,-0.887923 1.93115,-1.265796 2.9877,-0.760968 0.71567,0.34195 0.7779,0.489693 0.85092,2.020159 l 0.0788,1.651225 h -0.80637 c -0.74519,0 -0.80638,-0.07027 -0.80638,-0.926041 0,-0.646758 -0.11969,-0.926042 -0.39688,-0.926042 -0.3197,0 -0.39687,0.411575 -0.39687,2.116667 0,1.705091 0.0772,2.116666 0.39687,2.116666 0.27719,0 0.39688,-0.279283 0.39688,-0.926041 0,-0.852546 0.063,-0.926042 0.79375,-0.926042 0.78354,0 0.79375,0.01831 0.79375,1.422813 0,0.901946 -0.13665,1.536216 -0.37327,1.732595 -0.52066,0.432112 -2.02294,0.589407 -2.73943,0.286826 z m 5.02708,-0.01233 c -0.90053,-0.361773 -1.12063,-1.298649 -1.12063,-4.770046 v -3.157776 h 0.92604 c 0.64676,0 0.92604,0.119693 0.92604,0.396875 0,0.293982 0.30868,0.396875 1.19063,0.396875 1.18432,0 1.19062,0.0049 1.19062,0.926042 0,0.921142 -0.006,0.926042 -1.19062,0.926042 h -1.19063 v 1.719791 c 0,1.352315 0.0848,1.719792 0.39688,1.719792 0.30467,0 0.39687,-0.338079 0.39687,-1.455208 0,-1.440508 0.008,-1.455209 0.79375,-1.455209 h 0.79375 v 2.513542 2.513542 l -1.25677,-0.01677 c -0.69122,-0.0092 -1.52639,-0.12509 -1.85593,-0.257479 z m -48.42028,-0.238156 c -1.90516,-0.313708 -3.3431292,-1.712518 -3.7858092,-3.682714 -0.2051,-0.912834 -0.0624,-2.055458 0.80233,-6.424097 l 1.0517892,-5.313775 -0.54118,-1.06081 C 9.7257298,23.433157 9.3881098,23.059254 9.2731098,23.185709 c -0.11499,0.126454 -0.54662,1.986089 -0.95917,4.132521 l -0.75009,3.902604 H 3.78196 C 1.70192,31.220834 4.0000865e-5,31.131534 0,31.022397 -3.9999135e-5,30.913256 1.38685,23.888569 3.08197,15.41198 L 6.164,0 h 3.7971994 c 2.0884596,0 3.7971996,0.0365 3.7971996,0.0811 0,0.0446 -0.59531,3.04421 -1.32292,6.66575 -0.7276,3.62155 -1.32291,6.79973 -1.32291,7.06263 0,0.635172 1.21432,0.646899 1.55094,0.015 0.13566,-0.25466 0.8019,-3.26099 1.48054,-6.68073 0.67865,-3.41974 1.29424,-6.42607 1.368,-6.68073 C 15.631479,0.05062 16.049159,0 19.332479,0 c 2.85786,0 3.68634,0.0777 3.68634,0.34571 0,0.79425 -2.67171,13.63186 -3.03917,14.60325 -0.22019,0.582083 -0.98082,1.827261 -1.69028,2.767062 l -1.28994,1.708729 0.51887,1.201687 c 0.86065,1.993205 0.85351,3.459256 -0.0379,7.791406 -0.44635,2.169136 -0.81155,4.103902 -0.81155,4.299479 0,0.286962 1.12347,0.355595 5.82084,0.355595 3.20146,0 5.81521,0.0893 5.80833,0.198437 -0.007,0.109141 -0.33954,1.805781 -0.73926,3.770313 l -0.72676,3.571875 -6.60293,0.03525 c -3.63161,0.01939 -7.11136,-0.04847 -7.73278,-0.150794 z m 52.32673,-2.794873 v -3.042708 h 1.05834 1.05833 v 3.042708 3.042708 h -1.05833 -1.05834 z m 3.72079,2.722851 c -0.8949,-0.47407 -1.1438,-1.689359 -1.03068,-5.032521 0.11673,-3.449886 0.31609,-3.756847 2.43999,-3.756847 2.2308,0 2.27824,0.09325 2.27824,4.479017 0,2.844781 -0.0878,3.844563 -0.35743,4.068299 -0.57454,0.47683 -2.60793,0.624626 -3.33012,0.242052 z m 1.83546,-4.310351 c 0,-1.822685 -0.0752,-2.248958 -0.39687,-2.248958 -0.32165,0 -0.39688,0.426273 -0.39688,2.248958 0,1.822685 0.0752,2.248958 0.39688,2.248958 0.32165,0 0.39687,-0.426273 0.39687,-2.248958 z m 2.69456,-0.125637 c 0.0794,-4.264766 0.11396,-4.521618 0.68623,-5.09323 0.80298,-0.80205 3.15802,-0.859715 3.99977,-0.09794 0.52543,0.475501 0.55694,0.763749 0.55694,5.093229 v 4.5892 h -1.05126 -1.05126 l -0.0732,-3.83713 c -0.0445,-2.332887 -0.17694,-3.83713 -0.3378,-3.83713 -0.16086,0 -0.29329,1.504243 -0.3378,3.83713 l -0.0732,3.83713 h -1.20097 -1.20098 z m -8.25081,-2.917071 v -1.058334 h 1.05834 1.05833 v 1.058334 1.058333 h -1.05833 -1.05834 z m -45.77291,-2.059895 c 0,-0.114295 0.9525,-4.961875 2.11666,-10.772397 1.16417,-5.810522 2.11667,-10.5985657 2.11667,-10.6401057 0,-0.0415 1.73914,-0.0755 3.86477,-0.0755 2.97854,0 3.83763,0.0758 3.74642,0.3307295 -0.0651,0.1819002 -1.05818,5.0634632 -2.20687,10.8479162 l -2.08853,10.517188 h -3.77456 c -2.07601,0 -3.77456,-0.09351 -3.77456,-0.207811 z m 9.52493,0.01548 c -4e-5,-0.112498 1.38685,-7.139932 3.08197,-15.616521 L 34.738999,0 h 3.81822 3.81822 l -0.15577,0.7276 c -0.0857,0.40019 -1.14941,5.69847 -2.36384,11.77396 l -2.20806,11.046358 h 0.88761 c 0.48818,0 0.88198,0.0893 0.8751,0.198437 -0.007,0.109141 -0.3395,1.805781 -0.73916,3.770313 l -0.72666,3.571875 -4.6848,0.07225 c -2.57663,0.03974 -4.68482,-0.01979 -4.68486,-0.132292 z m 15.68894,-0.08534 c -1.50251,-0.296802 -2.04677,-0.621467 -2.88574,-1.721408 -1.12173,-1.470663 -1.09964,-2.697351 0.16172,-8.982487 1.21086,-6.033468 1.74856,-7.458338 3.34273,-8.858038 1.54038,-1.35248 2.94438,-1.8489097 5.75029,-2.0332197 2.25314,-0.14801 2.52194,-0.22101 2.65628,-0.72144 0.0822,-0.30623 0.15108,-0.64607 0.15307,-0.75521 0.002,-0.1091403 -2.07998,-0.1984403 -4.6266,-0.1984403 -3.52767,0 -4.63025,-0.0787 -4.6304,-0.33073 -1.1e-4,-0.1819 0.31449,-1.90831 0.69909,-3.83646 L 45.583669,0 h 5.21792 c 7.29061,0 8.57604,0.30616 9.9865,2.37856 0.4264,0.62651 0.59531,1.25997 0.59531,2.23253 0,0.74681 -1.13109,7.00619 -2.51354,13.909747 -1.38245,6.903556 -2.51354,12.585237 -2.51354,12.625959 0,0.180303 -11.09456,-0.0065 -12.09238,-0.203633 z m 6.13663,-7.990554 c 0.0769,-0.327422 0.36138,-1.69664 0.63226,-3.042708 l 0.49251,-2.447396 h -0.88676 c -0.9946,0 -0.873,-0.266682 -1.65878,3.638021 l -0.49251,2.447396 h 0.88677 c 0.70181,0 0.9159,-0.124166 1.02651,-0.595313 z M 24.418949,3.96875 25.211679,0 h 3.79836 c 2.0891,0 3.79836,0.0432 3.79836,0.0959 0,0.12898 -1.28008,6.49388 -1.45733,7.24628 -0.13739,0.5831503 -0.21774,0.5953103 -3.93256,0.5953103 h -3.7923 z"
       id="path26" />
  </g>
</svg>
